<svg xmlns:dc="http://purl.org/dc/elements/1.1/" xmlns:cc="http://creativecommons.org/ns#" xmlns:rdf="http://www.w3.org/1999/02/22-rdf-syntax-ns#" xmlns:svg="http://www.w3.org/2000/svg" xmlns="http://www.w3.org/2000/svg" xmlns:sodipodi="http://sodipodi.sourceforge.net/DTD/sodipodi-0.dtd" xmlns:inkscape="http://www.inkscape.org/namespaces/inkscape" version="1.1" x="0px" y="0px" viewBox="0 0 100 125"><g transform="translate(0,-952.36218)"><path style="font-size:medium;font-style:normal;font-variant:normal;font-weight:normal;font-stretch:normal;text-indent:0;text-align:start;text-decoration:none;line-height:normal;letter-spacing:normal;word-spacing:normal;text-transform:none;direction:ltr;block-progression:tb;writing-mode:lr-tb;text-anchor:start;baseline-shift:baseline;opacity:1;color:#FFFFFF;fill:#FFFFFF;fill-opacity:1;stroke:none;stroke-width:4;marker:none;visibility:visible;display:inline;overflow:visible;enable-background:accumulate;font-family:Sans;-inkscape-font-specification:Sans" d="M 11.8125 6 A 2.0002 2.0002 0 0 0 10 8 L 10 76.8125 A 2.0002 2.0002 0 0 0 11.09375 78.625 L 41.3125 93.78125 A 2.0002 2.0002 0 0 0 44.21875 92 L 44.21875 26.4375 A 2.0002 2.0002 0 0 0 43.09375 24.625 L 20.90625 13.875 A 2.0126553 2.0126553 0 1 0 19.15625 17.5 L 40.21875 27.6875 L 40.21875 88.71875 L 14 75.59375 L 14 10 L 60.96875 10 L 60.96875 24.96875 A 2.0002 2.0002 0 1 0 64.96875 24.96875 L 64.96875 8 A 2.0002 2.0002 0 0 0 62.96875 6 L 12 6 A 2.0002 2.0002 0 0 0 11.8125 6 z M 71.5625 29.8125 A 2.0002 2.0002 0 0 0 69.9375 31.125 L 68.59375 34.8125 L 55.1875 34.8125 A 2.0002 2.0002 0 1 0 55.1875 38.8125 L 70.03125 38.8125 A 2.0002 2.0002 0 0 0 71.90625 37.5 L 72.84375 34.875 L 84.34375 42.40625 L 72.84375 49.9375 L 71.90625 47.3125 A 2.0002 2.0002 0 0 0 70.03125 46 L 55.1875 46 A 2.0002 2.0002 0 1 0 55.1875 50 L 68.59375 50 L 69.9375 53.6875 A 2.0002 2.0002 0 0 0 72.90625 54.6875 L 89.09375 44.09375 A 2.0002 2.0002 0 0 0 89.09375 40.71875 L 72.90625 30.125 A 2.0002 2.0002 0 0 0 71.5625 29.8125 z M 62.9375 56.65625 A 2.0002 2.0002 0 0 0 60.96875 58.6875 L 60.96875 74.8125 L 51.0625 74.8125 A 2.0002 2.0002 0 1 0 51.0625 78.8125 L 62.96875 78.8125 A 2.0002 2.0002 0 0 0 64.96875 76.8125 L 64.96875 58.6875 A 2.0002 2.0002 0 0 0 62.9375 56.65625 z " transform="translate(0,952.36218)"/></g></svg>