<svg xmlns:dc="http://purl.org/dc/elements/1.1/" xmlns:cc="http://creativecommons.org/ns#" xmlns:rdf="http://www.w3.org/1999/02/22-rdf-syntax-ns#" xmlns:svg="http://www.w3.org/2000/svg" xmlns="http://www.w3.org/2000/svg" xmlns:sodipodi="http://sodipodi.sourceforge.net/DTD/sodipodi-0.dtd" xmlns:inkscape="http://www.inkscape.org/namespaces/inkscape" version="1.1" x="0px" y="0px" viewBox="0 0 100 125"><g transform="translate(0,-952.36218)"><path d="m 21,957.36215 c -3.2894,0 -6,2.71061 -6,6 l 0,78.00005 c 0,3.2894 2.7106,6 6,6 l 58,0 c 3.2894,0 6,-2.7106 6,-6 l 0,-78.00005 c 0,-3.28939 -2.7106,-6 -6,-6 z m 0,4 58,0 c 1.1426,0 2,0.85744 2,2 l 0,78.00005 c 0,1.1425 -0.8574,2 -2,2 l -58,0 c -1.1426,0 -2,-0.8575 -2,-2 l 0,-78.00005 c 0,-1.14256 0.8574,-2 2,-2 z m 39.8125,6.96875 c -0.5033,0.0521 -0.9831,0.30344 -1.3125,0.6875 l -12.7812,14.625 -6.5313,-4.90625 c -0.8416,-0.63645 -2.1895,-0.44126 -2.816,0.40779 -0.6264,0.84905 -0.4154,2.19453 0.441,2.81096 l 8,6 c 0.7948,0.58846 2.0318,0.45901 2.6875,-0.28125 l 14,-16 c 0.5475,-0.59423 0.6787,-1.53516 0.3146,-2.25648 -0.364,-0.72133 -1.1989,-1.17471 -2.0021,-1.08727 z M 29,998.36211 c -1.1046,0 -2,0.8954 -2,1.99999 0,1.1046 0.8954,2 2,2 l 42,0 c 1.1046,0 2,-0.8954 2,-2 0,-1.10459 -0.8954,-1.99999 -2,-1.99999 z m 0,16.00009 c -1.1046,0 -2,0.8954 -2,2 0,1.1046 0.8954,2 2,2 l 42,0 c 1.1046,0 2,-0.8954 2,-2 0,-1.1046 -0.8954,-2 -2,-2 z m 0,16 c -1.1046,0 -2,0.8954 -2,2 0,1.1046 0.8954,2 2,2 l 42,0 c 1.1046,0 2,-0.8954 2,-2 0,-1.1046 -0.8954,-2 -2,-2 z" style="text-indent:0;text-transform:none;direction:ltr;block-progression:tb;baseline-shift:baseline;color:#000000;enable-background:accumulate;" fill="#000000" fill-opacity="1" stroke="none" marker="none" visibility="visible" display="inline" overflow="visible"/></g><text x="0" y="115" fill="#000000" font-size="5px" font-weight="bold" font-family="'Helvetica Neue', Helvetica, Arial-Unicode, Arial, Sans-serif">Created by unlimicon</text><text x="0" y="120" fill="#000000" font-size="5px" font-weight="bold" font-family="'Helvetica Neue', Helvetica, Arial-Unicode, Arial, Sans-serif">from the Noun Project</text></svg>