<svg xmlns="http://www.w3.org/2000/svg" data-name="Application, Settings" viewBox="0 0 48 60" x="0px" y="0px"><path d="M38,24c0-.37,0-.75,0-1.13l3.78-2.17-6-10.4L32,12.48A14.1,14.1,0,0,0,30,11.35V7H18v4.35a14.1,14.1,0,0,0-1.95,1.13L12.27,10.3l-6,10.4,3.78,2.17c0,.38-.05.76-.05,1.13s0,.75.05,1.13L6.27,27.3l6,10.4,3.78-2.18A14.1,14.1,0,0,0,18,36.65V41H30V36.65A14.1,14.1,0,0,0,32,35.52l3.78,2.18,6-10.4L38,25.13C38,24.75,38,24.37,38,24Zm1,4L35,35l-3.18-1.83-.53.4a11.91,11.91,0,0,1-2.66,1.55l-.62.25V39H20V35.33l-.62-.25a11.91,11.91,0,0,1-2.66-1.55l-.53-.4L13,35,9,28l3.18-1.84-.09-.66a11.91,11.91,0,0,1,0-3.08l.09-.66L9,20,13,13l3.18,1.83.53-.4a11.91,11.91,0,0,1,2.66-1.55l.62-.25V9h8v3.67l.62.25a11.91,11.91,0,0,1,2.66,1.55l.53.4L35,13,39,20,35.81,21.8l.09.66a11.91,11.91,0,0,1,0,3.08l-.09.66Zm-9.71-1.19.09-.19a3.3,3.3,0,0,0,.19-.43,1.43,1.43,0,0,0,.08-.22,3.09,3.09,0,0,0,.14-.43l.06-.22c0-.16.06-.32.09-.48l0-.19c0-.23,0-.46,0-.69s0-.46,0-.69l0-.19-.09-.49a1.8,1.8,0,0,1-.05-.19c-.05-.17-.1-.34-.16-.5a1.21,1.21,0,0,1-.05-.14,6.09,6.09,0,0,0-.67-1.23l0,0a4.92,4.92,0,0,0-.41-.52l-.08-.08a4.16,4.16,0,0,0-.42-.42l-.11-.1a4.63,4.63,0,0,0-.42-.32L27.3,19l-.37-.22a5.93,5.93,0,0,0-.72-.34l-.1,0a4.31,4.31,0,0,0-.61-.19l-.05,0A6.33,6.33,0,0,0,24,18a6,6,0,0,0-2.17.41h0a6.27,6.27,0,0,0-.74.35l-.43.25-.39.3-.08.06-.32.29-.16.17a3.58,3.58,0,0,0-.26.29,2.11,2.11,0,0,0-.19.23l-.2.27a4.66,4.66,0,0,0-.32.53l-.09.18a3.3,3.3,0,0,0-.19.43,1.43,1.43,0,0,0-.08.22,3.09,3.09,0,0,0-.14.43l-.06.22c0,.16-.06.32-.09.48l0,.19c0,.23,0,.46,0,.69s0,.46,0,.69l0,.19.09.49a1.8,1.8,0,0,1,.05.19c.05.17.1.34.16.5a1.21,1.21,0,0,1,.05.14,6.09,6.09,0,0,0,.67,1.23l0,0a4.92,4.92,0,0,0,.41.52l.08.08a4.16,4.16,0,0,0,.42.42l.11.1a4.63,4.63,0,0,0,.42.32l.15.11.37.22a5.66,5.66,0,0,0,.7.34l.16.05a2.91,2.91,0,0,0,.5.16l.19,0,.51.1.18,0c.23,0,.46,0,.69,0s.47,0,.69,0l.17,0,.54-.1.15,0a4.75,4.75,0,0,0,.57-.18l.1,0a6.59,6.59,0,0,0,.71-.34l.43-.25.39-.3.08-.06.32-.29.16-.17a3.58,3.58,0,0,0,.26-.29,2.11,2.11,0,0,0,.19-.23l.2-.27A5.58,5.58,0,0,0,29.28,26.85Zm-1.35-2.13,0,.14a4.88,4.88,0,0,1-.2.65,1.17,1.17,0,0,1-.05.11,4.47,4.47,0,0,1-.33.61h0a3.51,3.51,0,0,1-.46.56l0,.05a4,4,0,0,1-1.14.77l-.18.09a5.18,5.18,0,0,1-.56.17c-.11,0-.23,0-.34.06l-.29,0a5.61,5.61,0,0,1-.58,0l-.34,0a2.47,2.47,0,0,1-.29-.06,3,3,0,0,1-.6-.18l-.13-.06a4,4,0,0,1-1.16-.79l0,0a4.18,4.18,0,0,1-.47-.57l0,0a3.7,3.7,0,0,1-.32-.59l-.05-.11a4.12,4.12,0,0,1-.2-.65l0-.14A4.18,4.18,0,0,1,20,24a4.4,4.4,0,0,1,.07-.73l0-.13a4.11,4.11,0,0,1,.21-.68s0,0,0-.05a4.06,4.06,0,0,1,2-2l.14-.07a4.75,4.75,0,0,1,.64-.2l.16,0a3.69,3.69,0,0,1,1.43,0l.14,0a4.6,4.6,0,0,1,.66.2l.11.05a4,4,0,0,1,1.17.8l0,0a4.18,4.18,0,0,1,.47.57l0,0a3.7,3.7,0,0,1,.32.59l.05.11a4.12,4.12,0,0,1,.2.65l0,.14a3.74,3.74,0,0,1,0,1.44Z"/><text x="0" y="63" fill="#000000" font-size="5px" font-weight="bold" font-family="'Helvetica Neue', Helvetica, Arial-Unicode, Arial, Sans-serif">Created by Rahman Haryanto</text><text x="0" y="68" fill="#000000" font-size="5px" font-weight="bold" font-family="'Helvetica Neue', Helvetica, Arial-Unicode, Arial, Sans-serif">from the Noun Project</text></svg>